<svg width="192" height="192" viewBox="0 0 192 192" fill="none" xmlns="http://www.w3.org/2000/svg">
<path d="M83.4501 117.292C82.907 115.186 81.8096 113.265 80.2722 111.728C78.7349 110.19 76.8136 109.093 74.7083 108.55L37.3871 98.9261C36.7503 98.7454 36.1899 98.3619 35.7909 97.8338C35.3918 97.3057 35.1759 96.6619 35.1759 96C35.1759 95.3381 35.3918 94.6943 35.7909 94.1662C36.1899 93.6381 36.7503 93.2546 37.3871 93.0739L74.7083 83.444C76.8128 82.9014 78.7336 81.805 80.2709 80.2687C81.8083 78.7325 82.906 76.8125 83.4501 74.7083L93.0739 37.3871C93.2528 36.7478 93.6359 36.1847 94.1648 35.7835C94.6936 35.3823 95.3392 35.1651 96.003 35.1651C96.6668 35.1651 97.3124 35.3823 97.8413 35.7835C98.3702 36.1847 98.7533 36.7478 98.9322 37.3871L108.55 74.7083C109.093 76.8136 110.19 78.7349 111.728 80.2723C113.265 81.8096 115.186 82.907 117.292 83.4501L154.613 93.0678C155.255 93.2449 155.821 93.6276 156.224 94.1572C156.627 94.6869 156.846 95.3342 156.846 96C156.846 96.6658 156.627 97.3131 156.224 97.8428C155.821 98.3724 155.255 98.7551 154.613 98.9322L117.292 108.55C115.186 109.093 113.265 110.19 111.728 111.728C110.19 113.265 109.093 115.186 108.55 117.292L98.9261 154.613C98.7472 155.252 98.3641 155.815 97.8352 156.217C97.3063 156.618 96.6608 156.835 95.997 156.835C95.3331 156.835 94.6876 156.618 94.1587 156.217C93.6298 155.815 93.2467 155.252 93.0678 154.613L83.4501 117.292Z" fill="#E3C710" stroke="black" stroke-width="6" stroke-linecap="round" stroke-linejoin="round"/>
<path d="M144.667 41.25V65.5833Z" fill="#E3C710"/>
<path d="M144.667 41.25V65.5833" stroke="black" stroke-width="6" stroke-linecap="round" stroke-linejoin="round"/>
<path d="M156.833 53.4167H132.5Z" fill="#E3C710"/>
<path d="M156.833 53.4167H132.5" stroke="black" stroke-width="6" stroke-linecap="round" stroke-linejoin="round"/>
<path d="M47.3333 126.417V138.583Z" fill="#E3C710"/>
<path d="M47.3333 126.417V138.583" stroke="black" stroke-width="6" stroke-linecap="round" stroke-linejoin="round"/>
<path d="M53.4167 132.5H41.25Z" fill="#E3C710"/>
<path d="M53.4167 132.5H41.25" stroke="black" stroke-width="6" stroke-linecap="round" stroke-linejoin="round"/>
</svg>
